# xmcd
#
# Track frame offsets:
#	150
#	12120
#	24940
#	37430
#	50312
#	63310
#	78457
#	91662
#	106067
#	120722
#	131822
#	145982
#	158947
#	171435
#	184337
#	196265
#	208775
#	220242
#	231435
#	244902
#	257345
#	269382
#	280385
#	293315
#	306007
#
# Disc length: 4249 seconds
#
# Revision: 0
# Processed by: cddbd v1.5.2PL0 Copyright (c) Steve Scherf et al.
# Submitted via: audiograbber 1.83.01
#
DISCID=6c109719
DTITLE=Gene Autry - back in the saddle again 25 cowboy classicss
DYEAR=1900
DGENRE=Country
TTITLE0=1937 Back in saddle again
TTITLE1=1929 Blue yodel no 5
TTITLE2=1931 Any old time
TTITLE3=1931 High steppin' mama
TTITLE4=1931 Silver-haired daddy of mine
TTITLE5=1935 Tumbling tumbleweeds
TTITLE6=1935 Ridin' down the canyon
TTITLE7=1935 Mexicali rose
TTITLE8=1937 Blue Hawaii
TTITLE9=1937 Dust
TTITLE10=1938 The old trail
TTITLE11=1939 Paradise in the moonlight
TTITLE12=1939 Rhythm of the hoofbeats
TTITLE13=1939 South of the border
TTITLE14=1940 Blueberry hill
TTITLE15=1040 Be honest with me
TTITLE16=1940 When the swallows come back to Capistrano
TTITLE17=1941 You are my sunshine
TTITLE18=1941 A year ago tonight
TTITLE19=1941 I'll never let you go
TTITLE20=1941 I'll wait for you
TTITLE21=1941 After tomorrow
TTITLE22=1941 Lonely river
TTITLE23=1945 Have i told you lately that I love you
TTITLE24=1940 Goodbye little darlin' goodbye
EXTD=
EXTT0=
EXTT1=
EXTT2=
EXTT3=
EXTT4=
EXTT5=
EXTT6=
EXTT7=
EXTT8=
EXTT9=
EXTT10=
EXTT11=
EXTT12=
EXTT13=
EXTT14=
EXTT15=
EXTT16=
EXTT17=
EXTT18=
EXTT19=
EXTT20=
EXTT21=
EXTT22=
EXTT23=
EXTT24=
PLAYORDER=
